<svg xmlns="http://www.w3.org/2000/svg" version="1.1" xmlns:xlink="http://www.w3.org/1999/xlink" xmlns:svgjs="http://svgjs.dev/svgjs" width="128" height="128" viewBox="0 0 128 128"><g transform="matrix(0.8046875,0,0,0.8046875,12.459818023255806,7.556766570723681)"><svg viewBox="0 0 86 95" data-background-color="#ffffff" preserveAspectRatio="xMidYMid meet" height="141" width="128" xmlns="http://www.w3.org/2000/svg" xmlns:xlink="http://www.w3.org/1999/xlink"><g id="tight-bounds" transform="matrix(1,0,0,1,0.0335500000000053,-0.24049999999999727)"><svg viewBox="0 0 85.93289999999999 95.481" height="95.481" width="85.93289999999999"><g><svg viewBox="0 0 85.93289999999999 95.481" height="95.481" width="85.93289999999999"><g><svg viewBox="0 0 85.93289999999999 95.481" height="95.481" width="85.93289999999999"><g id="textblocktransform"><svg viewBox="0 0 85.93289999999999 95.481" height="95.481" width="85.93289999999999" id="textblock"><g><svg viewBox="0 0 85.93289999999999 95.481" height="95.481" width="85.93289999999999"><g><svg viewBox="0 0 85.93289999999999 95.481" height="95.481" width="85.93289999999999"><g><svg xmlns="http://www.w3.org/2000/svg" xmlns:xlink="http://www.w3.org/1999/xlink" version="1.1" x="0" y="0" viewBox="9.5 5 81 90" enable-background="new 0 0 100 100" xml:space="preserve" height="95.481" width="85.93289999999999" class="icon-icon-0" data-fill-palette-color="accent" id="icon-0"><g fill="#fbb168" data-fill-palette-color="accent"><path fill="#fbb168" d="M72.5 32v-9c0-9.94-8.058-18-18-18h-9c-9.94 0-18 8.06-18 18v9h-18v47.25C9.5 87.949 16.551 95 25.25 95h49.5c8.699 0 15.75-7.051 15.75-15.75V32H72.5zM36.5 23c0-4.964 4.039-9 9-9h9c4.964 0 9 4.036 9 9v9h-27V23zM27.5 50h9v9h-9V50zM45.5 77h-9v-9h9V77zM45.5 50h9v9h-9V50zM63.5 77h-9v-9h9V77zM72.5 59h-9v-9h9V59z" data-fill-palette-color="accent"></path></g></svg></g></svg></g></svg></g></svg></g></svg></g><g></g></svg></g><defs></defs></svg><rect width="85.93289999999999" height="95.481" fill="none" stroke="none" visibility="hidden"></rect></g></svg></g></svg>