<svg xmlns="http://www.w3.org/2000/svg" version="1.1" xmlns:xlink="http://www.w3.org/1999/xlink" xmlns:svgjs="http://svgjs.dev/svgjs" width="2000" height="2000" viewBox="0 0 2000 2000"><g transform="matrix(1,0,0,1,0,0.0006202860404300736)"><svg viewBox="0 0 280 280" data-background-color="#ffffff" preserveAspectRatio="xMidYMid meet" height="2000" width="2000" xmlns="http://www.w3.org/2000/svg" xmlns:xlink="http://www.w3.org/1999/xlink"><g id="tight-bounds" transform="matrix(1,0,0,1,0,-0.00008684004566816839)"><svg viewBox="0 0 280 280" height="280" width="280"><g><svg viewBox="0 0 280 280" height="280" width="280"><g><svg viewBox="0 0 280 280" height="280" width="280"><g id="textblocktransform"><svg viewBox="0 0 280 280" height="280" width="280" id="textblock"><g><svg viewBox="0 0 280 280" height="280" width="280"><g transform="matrix(1,0,0,1,57.50420886156945,57.50420886156945)"><svg viewBox="0 0 164.9915822768611 164.9915822768611" height="164.9915822768611" width="164.9915822768611"><g><circle r="82" cx="82.49579113843055" cy="82.49579113843055" fill="#fce44d" data-fill-palette-color="accent"></circle><svg xmlns="http://www.w3.org/2000/svg" xmlns:xlink="http://www.w3.org/1999/xlink" version="1.1" x="24.74873734152917" y="24.748737341529164" viewBox="9.5 5 81 90" enable-background="new 0 0 100 100" xml:space="preserve" height="115.49410759380275" width="115.49410759380275" class="icon-xg-0" data-fill-palette-color="quaternary" id="xg-0"><g fill="#ffffff" data-fill-palette-color="quaternary"><path fill="#ffffff" d="M72.5 32v-9c0-9.94-8.058-18-18-18h-9c-9.94 0-18 8.06-18 18v9h-18v47.25C9.5 87.949 16.551 95 25.25 95h49.5c8.699 0 15.75-7.051 15.75-15.75V32H72.5zM36.5 23c0-4.964 4.039-9 9-9h9c4.964 0 9 4.036 9 9v9h-27V23zM27.5 50h9v9h-9V50zM45.5 77h-9v-9h9V77zM45.5 50h9v9h-9V50zM63.5 77h-9v-9h9V77zM72.5 59h-9v-9h9V59z" data-fill-palette-color="quaternary"></path></g></svg></g></svg></g><g><path d="M12.069 91.88l26.051 9.293-1.228 3.442-26.051-9.293zM15.049 83.525l2.81 1.002-7.182 20.134-2.81-1.002z" fill="#f5ba41" data-fill-palette-color="primary"></path><path d="M29.866 77.384l15.168 8.375-1.719 3.113-17.996-9.936 1.671-3.027zM30.037 70.166l2.845 1.571c-0.204 0.233-0.378 0.461-0.523 0.682-0.141 0.215-0.292 0.467-0.451 0.755v0c-0.522 0.945-0.768 1.848-0.739 2.707 0.032 0.868 0.292 1.666 0.778 2.393 0.483 0.733 1.139 1.385 1.967 1.955v0l0.015 1.159c-1.453-0.802-2.675-1.729-3.667-2.781-0.983-1.054-1.61-2.194-1.881-3.419-0.271-1.226-0.049-2.487 0.668-3.784v0c0.118-0.213 0.281-0.454 0.489-0.723 0.214-0.265 0.38-0.437 0.499-0.515z" fill="#f5ba41" data-fill-palette-color="primary"></path><path d="M57.03 69.376v0c-1.193 1.5-2.56 2.537-4.102 3.112-1.551 0.575-3.154 0.702-4.808 0.379-1.654-0.322-3.233-1.082-4.738-2.278v0l-0.642-0.511c-1.742-1.385-2.965-2.905-3.67-4.559-0.703-1.645-0.951-3.264-0.744-4.857 0.207-1.594 0.786-2.989 1.737-4.184v0c1.23-1.546 2.577-2.537 4.041-2.971 1.465-0.425 2.975-0.398 4.53 0.081 1.55 0.484 3.073 1.32 4.568 2.509v0l1.237 0.983-9.555 12.016-2.234-1.777 7.347-9.24-0.209-0.166c-0.744-0.524-1.555-0.933-2.431-1.227-0.877-0.294-1.752-0.341-2.625-0.143-0.878 0.194-1.692 0.762-2.442 1.705v0c-0.66 0.83-1.007 1.753-1.041 2.769-0.039 1.012 0.246 2.055 0.856 3.13 0.606 1.079 1.553 2.131 2.842 3.156v0l0.642 0.51c1.021 0.812 2.1 1.359 3.238 1.641 1.139 0.292 2.242 0.281 3.308-0.033 1.07-0.319 1.998-0.973 2.785-1.963v0c0.771-0.969 1.226-1.949 1.366-2.939 0.14-0.991 0.078-2.003-0.185-3.038v0l2.649-0.632c0.379 1.143 0.504 2.45 0.377 3.922-0.131 1.477-0.83 3.012-2.097 4.605z" fill="#f5ba41" data-fill-palette-color="primary"></path><path d="M58.416 44.257l10.498 12.3-2.705 2.309-13.346-15.636 2.562-2.187zM61.086 48.68l-1.165 0.916c-1.198-1.445-2.011-2.955-2.438-4.529-0.427-1.575-0.443-3.09-0.048-4.545 0.391-1.459 1.217-2.728 2.48-3.805v0c1.032-0.881 2.083-1.449 3.155-1.705 1.071-0.256 2.165-0.147 3.281 0.329 1.116 0.476 2.26 1.4 3.432 2.773v0l8.741 10.24-2.705 2.309-8.767-10.271c-0.701-0.821-1.383-1.382-2.046-1.682-0.663-0.3-1.321-0.366-1.974-0.198-0.658 0.172-1.323 0.545-1.995 1.118v0c-0.666 0.569-1.15 1.224-1.451 1.966-0.301 0.733-0.44 1.514-0.416 2.343 0.028 0.834 0.203 1.653 0.527 2.459 0.323 0.815 0.786 1.576 1.389 2.282z" fill="#f5ba41" data-fill-palette-color="primary"></path><path d="M94.117 35.103l-12.034-22.13 3.116-1.694 13.94 25.635-2.847 1.548zM79.092 36.38l-0.194-0.356c-0.997-1.834-1.574-3.604-1.73-5.311-0.165-1.709 0.079-3.24 0.731-4.592 0.655-1.346 1.7-2.409 3.135-3.189v0c1.51-0.821 2.96-1.16 4.35-1.016 1.39 0.144 2.719 0.699 3.987 1.667 1.268 0.967 2.467 2.29 3.597 3.969v0l0.883 1.623c0.782 1.838 1.236 3.548 1.361 5.13 0.125 1.581-0.133 2.996-0.773 4.243-0.641 1.248-1.728 2.289-3.261 3.123v0c-1.412 0.768-2.868 1.046-4.37 0.835-1.504-0.216-2.926-0.853-4.265-1.909-1.345-1.053-2.495-2.459-3.451-4.217zM82.014 34.33l0.193 0.356c0.651 1.198 1.412 2.204 2.283 3.02 0.868 0.81 1.814 1.323 2.838 1.538 1.021 0.209 2.087 0.012 3.198-0.592v0c1.024-0.557 1.751-1.233 2.18-2.029 0.424-0.793 0.642-1.653 0.654-2.582 0.018-0.932-0.09-1.874-0.323-2.827v0l-2.204-4.052c-0.467-0.541-0.98-1.03-1.54-1.468-0.566-0.434-1.168-0.77-1.807-1.008-0.639-0.237-1.317-0.333-2.035-0.288-0.717 0.045-1.467 0.28-2.248 0.705v0c-1.122 0.61-1.873 1.408-2.251 2.394-0.379 0.986-0.459 2.071-0.242 3.257 0.218 1.186 0.652 2.378 1.304 3.576z" fill="#f5ba41" data-fill-palette-color="primary"></path><path d="M110.9 30.894l0.221-19.299 3.616-1.077-1.123 25.093c-0.038 0.541-0.121 1.139-0.249 1.795-0.129 0.65-0.345 1.298-0.647 1.945-0.31 0.642-0.743 1.221-1.297 1.736-0.561 0.517-1.292 0.91-2.195 1.18v0c-0.177 0.053-0.399 0.102-0.667 0.147-0.264 0.037-0.519 0.069-0.766 0.094-0.24 0.023-0.425 0.037-0.554 0.041v0l-0.809-2.717c0.098-0.016 0.259-0.043 0.48-0.081 0.216-0.037 0.368-0.068 0.457-0.095v0c1.136-0.338 1.956-0.84 2.458-1.505 0.503-0.665 0.775-1.667 0.816-3.005v0zM101.672 14.409l9.637 13.807 1.928 3.291-2.072 1.937-13.214-17.927z" fill="#f5ba41" data-fill-palette-color="primary"></path><path d="M126.883 1.498l3.08 27.488-3.662 0.41-3.079-27.488zM139.767 12.599l0.33 2.945-12.291 1.377-0.33-2.945zM140.254 0l0.332 2.965-14.166 1.587-0.332-2.965z" fill="#f5ba41" data-fill-palette-color="primary"></path><path d="M160.751 25.553l0.914-10.54c0.106-1.22-0.17-2.226-0.828-3.017-0.665-0.791-1.703-1.248-3.114-1.371v0c-0.873-0.076-1.654 0.012-2.343 0.263-0.689 0.244-1.238 0.597-1.648 1.057-0.41 0.46-0.64 0.979-0.691 1.556v0l-3.533-0.307c0.085-0.984 0.503-1.91 1.253-2.776 0.75-0.874 1.758-1.556 3.023-2.048 1.272-0.491 2.735-0.665 4.388-0.522v0c1.489 0.129 2.786 0.496 3.891 1.101 1.104 0.605 1.937 1.441 2.499 2.508 0.561 1.073 0.776 2.374 0.643 3.903v0l-0.828 9.536c-0.059 0.682-0.063 1.412-0.011 2.19 0.051 0.784 0.174 1.463 0.369 2.035v0l-0.027 0.305-3.69-0.32c-0.142-0.422-0.233-0.972-0.274-1.65-0.046-0.685-0.044-1.319 0.007-1.903zM162.135 16.69l-0.174 2.463-3.524-0.305c-1.995-0.173-3.561 0.012-4.698 0.554-1.144 0.535-1.77 1.433-1.88 2.692v0c-0.085 0.984 0.174 1.846 0.777 2.586 0.603 0.74 1.542 1.165 2.815 1.276v0c1.076 0.093 2.044-0.051 2.903-0.432 0.86-0.388 1.558-0.896 2.095-1.524 0.537-0.628 0.852-1.248 0.945-1.862v0l1.37 1.815c-0.138 0.523-0.428 1.09-0.872 1.699-0.449 0.609-1.025 1.18-1.725 1.715-0.7 0.528-1.513 0.946-2.439 1.255-0.919 0.304-1.936 0.407-3.051 0.311v0c-1.384-0.12-2.575-0.491-3.572-1.114-0.99-0.628-1.734-1.426-2.232-2.394-0.491-0.975-0.687-2.023-0.59-3.145v0c0.191-2.204 1.167-3.809 2.927-4.813 1.766-0.997 4.056-1.373 6.87-1.129v0z" fill="#f5ba41" data-fill-palette-color="primary"></path><path d="M184.16 29.27v0c0.143-0.487 0.168-0.97 0.076-1.45-0.09-0.486-0.405-0.994-0.943-1.523-0.542-0.537-1.425-1.129-2.649-1.777v0c-1.369-0.738-2.515-1.497-3.439-2.277-0.924-0.779-1.57-1.618-1.938-2.515-0.362-0.896-0.383-1.887-0.063-2.973v0c0.306-1.043 0.887-1.908 1.741-2.598 0.856-0.696 1.912-1.147 3.168-1.355 1.254-0.201 2.616-0.086 4.088 0.347v0c1.58 0.464 2.851 1.136 3.815 2.016 0.961 0.886 1.603 1.881 1.923 2.985 0.321 1.103 0.315 2.22-0.017 3.351v0l-3.402-1c0.239-0.815 0.109-1.691-0.392-2.627-0.492-0.941-1.402-1.606-2.729-1.996v0c-0.923-0.271-1.713-0.349-2.371-0.233-0.667 0.12-1.195 0.363-1.584 0.729-0.395 0.364-0.664 0.79-0.807 1.276v0c-0.143 0.487-0.144 0.946-0.004 1.379 0.136 0.424 0.488 0.874 1.056 1.35 0.569 0.469 1.432 1.025 2.588 1.666v0c1.51 0.842 2.712 1.668 3.606 2.48 0.899 0.82 1.494 1.678 1.787 2.574 0.288 0.888 0.276 1.866-0.038 2.934v0c-0.336 1.144-0.949 2.062-1.839 2.754-0.892 0.699-1.979 1.128-3.261 1.287-1.287 0.151-2.701-0.001-4.242-0.454v0c-1.738-0.51-3.119-1.253-4.144-2.226-1.019-0.972-1.694-2.039-2.025-3.2-0.333-1.155-0.339-2.279-0.018-3.372v0l3.402 0.999c-0.208 0.941-0.151 1.751 0.172 2.429 0.321 0.684 0.795 1.243 1.423 1.674 0.633 0.44 1.297 0.762 1.992 0.966v0c0.923 0.271 1.733 0.375 2.431 0.313 0.7-0.069 1.274-0.271 1.722-0.606 0.448-0.335 0.753-0.777 0.915-1.327z" fill="#f5ba41" data-fill-palette-color="primary"></path><path d="M208.458 14.043l-13.422 25.911-3.158-1.636 13.422-25.911zM199.384 29.735l-1.289-0.734c0.887-1.654 1.979-2.976 3.278-3.965 1.298-0.989 2.696-1.574 4.191-1.756 1.499-0.188 2.985 0.1 4.459 0.863v0c1.205 0.624 2.127 1.384 2.769 2.28 0.641 0.896 0.952 1.95 0.931 3.163-0.02 1.213-0.445 2.621-1.275 4.223v0l-6.193 11.956-3.158-1.636 6.211-11.99c0.497-0.959 0.759-1.802 0.787-2.53 0.028-0.727-0.159-1.362-0.56-1.903-0.408-0.545-1.003-1.02-1.787-1.426v0c-0.778-0.403-1.567-0.604-2.368-0.604-0.792-0.002-1.568 0.163-2.327 0.497-0.762 0.34-1.455 0.811-2.079 1.415-0.633 0.607-1.163 1.322-1.59 2.147z" fill="#f5ba41" data-fill-palette-color="primary"></path><path d="M227.602 35.987l-12.16 16.575-2.867-2.104 12.16-16.575zM227.757 29.313v0c0.327-0.446 0.748-0.725 1.263-0.838 0.511-0.107 1.043 0.042 1.595 0.448v0c0.552 0.405 0.857 0.87 0.914 1.393 0.058 0.533-0.076 1.022-0.403 1.468v0c-0.323 0.441-0.746 0.711-1.268 0.81-0.513 0.098-1.045-0.056-1.597-0.461v0c-0.552-0.405-0.856-0.865-0.912-1.38-0.052-0.52 0.084-1 0.408-1.44z" fill="#f5ba41" data-fill-palette-color="primary"></path><path d="M227.794 50.13l0.318-0.31c1.421-1.383 2.959-2.351 4.615-2.907 1.656-0.546 3.299-0.642 4.929-0.289 1.63 0.362 3.111 1.227 4.443 2.596v0c1.35 1.387 2.189 2.905 2.516 4.554 0.318 1.648 0.179 3.29-0.416 4.926-0.604 1.636-1.617 3.145-3.037 4.527v0l-0.319 0.311c-1.416 1.378-2.95 2.347-4.601 2.906-1.661 0.56-3.304 0.656-4.929 0.29-1.63-0.371-3.115-1.246-4.456-2.625v0c-1.341-1.378-2.175-2.887-2.503-4.525-0.322-1.634-0.184-3.276 0.416-4.927 0.6-1.641 1.607-3.15 3.024-4.527zM230.593 52.368l-0.319 0.31c-0.967 0.942-1.715 1.968-2.242 3.078-0.527 1.111-0.743 2.216-0.646 3.317 0.097 1.1 0.6 2.118 1.51 3.052v0c0.9 0.925 1.899 1.451 2.996 1.578 1.097 0.127 2.208-0.059 3.333-0.556 1.129-0.492 2.177-1.209 3.145-2.151v0l0.318-0.31c0.967-0.942 1.713-1.97 2.235-3.085 0.527-1.111 0.743-2.221 0.646-3.331-0.097-1.11-0.6-2.132-1.509-3.066v0c-0.891-0.916-1.89-1.437-2.997-1.563-1.107-0.127-2.22 0.061-3.339 0.562-1.12 0.502-2.164 1.223-3.131 2.165z" fill="#f5ba41" data-fill-palette-color="primary"></path><path d="M252.677 69.963l-13.596 8.755-1.925-2.99 17.283-11.13 1.824 2.832zM247.937 72.016l-0.753-1.277c1.592-0.994 3.197-1.597 4.816-1.809 1.618-0.212 3.121-0.025 4.509 0.562 1.394 0.583 2.54 1.572 3.439 2.967v0c0.735 1.141 1.157 2.259 1.267 3.355 0.111 1.096-0.145 2.165-0.766 3.207-0.621 1.042-1.69 2.052-3.207 3.029v0l-11.32 7.29-1.925-2.989 11.353-7.312c0.908-0.585 1.555-1.186 1.941-1.802 0.386-0.617 0.54-1.26 0.461-1.93-0.082-0.675-0.363-1.384-0.841-2.126v0c-0.474-0.736-1.059-1.304-1.754-1.702-0.686-0.396-1.441-0.638-2.265-0.727-0.83-0.084-1.666-0.02-2.508 0.194-0.851 0.211-1.667 0.568-2.447 1.07z" fill="#f5ba41" data-fill-palette-color="primary"></path><path d="M258.043 105.121v0c0.473-0.182 0.872-0.456 1.198-0.821 0.331-0.368 0.543-0.926 0.636-1.674 0.097-0.757 0.03-1.818-0.2-3.183v0c-0.246-1.536-0.34-2.907-0.282-4.115 0.057-1.208 0.33-2.23 0.819-3.068 0.491-0.831 1.266-1.451 2.323-1.858v0c1.014-0.391 2.054-0.456 3.121-0.196 1.073 0.257 2.073 0.821 3.001 1.691 0.922 0.873 1.659 2.025 2.21 3.458v0c0.592 1.536 0.831 2.955 0.718 4.254-0.12 1.302-0.52 2.416-1.201 3.342-0.681 0.926-1.571 1.6-2.671 2.024v0l-1.275-3.31c0.793-0.305 1.409-0.941 1.848-1.908 0.448-0.963 0.423-2.09-0.073-3.38v0c-0.346-0.897-0.764-1.572-1.257-2.025-0.5-0.457-1.014-0.728-1.541-0.814-0.53-0.092-1.031-0.048-1.504 0.135v0c-0.473 0.182-0.839 0.461-1.097 0.835-0.254 0.366-0.398 0.919-0.431 1.658-0.027 0.737 0.057 1.76 0.251 3.069v0c0.249 1.711 0.324 3.168 0.222 4.371-0.105 1.212-0.424 2.206-0.957 2.983-0.53 0.769-1.314 1.353-2.353 1.753v0c-1.112 0.428-2.214 0.5-3.305 0.214-1.097-0.283-2.098-0.886-3.004-1.807-0.902-0.93-1.641-2.145-2.218-3.644v0c-0.651-1.69-0.901-3.238-0.751-4.644 0.153-1.4 0.589-2.584 1.31-3.553 0.714-0.967 1.603-1.655 2.666-2.065v0l1.275 3.31c-0.874 0.407-1.482 0.945-1.824 1.613-0.349 0.671-0.503 1.387-0.465 2.148 0.035 0.77 0.183 1.493 0.444 2.168v0c0.346 0.897 0.755 1.604 1.229 2.12 0.48 0.514 0.99 0.847 1.528 1 0.539 0.152 1.075 0.126 1.61-0.081z" fill="#f5ba41" data-fill-palette-color="primary"></path><path d="M45.941 182.21l-27.375 9.904-1.308-3.614 27.376-9.904zM49.117 190.988l-2.954 1.069-7.653-21.152 2.954-1.068z" fill="#f5ba41" data-fill-palette-color="primary"></path><path d="M42.712 201.432l-15.943 8.853-1.818-3.273 18.914-10.503 1.769 3.187zM49.057 205.615l-2.988 1.659c-0.099-0.314-0.206-0.594-0.32-0.839-0.117-0.251-0.259-0.527-0.425-0.827v0c-0.55-0.99-1.219-1.715-2.008-2.172-0.786-0.452-1.64-0.667-2.562-0.645-0.927 0.025-1.875 0.246-2.841 0.662v0l-1.04-0.632c1.526-0.847 3.033-1.417 4.52-1.708 1.494-0.295 2.863-0.223 4.109 0.216 1.243 0.447 2.243 1.353 3 2.718v0c0.121 0.219 0.243 0.498 0.364 0.838 0.121 0.34 0.184 0.583 0.191 0.73z" fill="#f5ba41" data-fill-palette-color="primary"></path><path d="M40.072 229.885v0c-1.255-1.577-1.994-3.223-2.216-4.94-0.221-1.726 0.03-3.399 0.752-5.018 0.713-1.62 1.864-3.062 3.451-4.326v0l0.672-0.535c1.834-1.46 3.681-2.354 5.542-2.682 1.856-0.333 3.578-0.206 5.165 0.382 1.583 0.592 2.874 1.517 3.875 2.774v0c1.296 1.628 1.992 3.242 2.087 4.841 0.094 1.609-0.29 3.152-1.151 4.629-0.861 1.477-2.078 2.841-3.649 4.092v0l-1.298 1.033-10.06-12.635 2.342-1.864 7.734 9.714 0.224-0.179c0.714-0.636 1.325-1.37 1.832-2.203 0.507-0.833 0.765-1.72 0.773-2.661 0.008-0.941-0.383-1.909-1.175-2.903v0c-0.697-0.876-1.563-1.45-2.596-1.722-1.032-0.281-2.169-0.234-3.411 0.14-1.246 0.369-2.547 1.093-3.902 2.173v0l-0.672 0.535c-1.072 0.853-1.893 1.831-2.463 2.933-0.569 1.093-0.817 2.225-0.744 3.396 0.073 1.171 0.524 2.276 1.353 3.317v0c0.816 1.025 1.714 1.725 2.693 2.098 0.983 0.379 2.037 0.554 3.16 0.527v0l0.026 2.871c-1.264 0.114-2.638-0.067-4.121-0.545-1.478-0.482-2.885-1.562-4.223-3.242z" fill="#f5ba41" data-fill-palette-color="primary"></path><path d="M66.213 231.982l-11.043 12.939-2.848-2.43 14.045-16.456 2.697 2.303zM62.069 235.484l-1.149-1.058c1.298-1.481 2.73-2.575 4.295-3.283 1.57-0.703 3.146-0.973 4.729-0.808 1.578 0.17 3.031 0.821 4.358 1.954v0c1.087 0.928 1.853 1.928 2.297 2.999 0.444 1.072 0.51 2.228 0.197 3.467-0.313 1.239-1.083 2.578-2.31 4.016v0l-9.202 10.782-2.848-2.431 9.228-10.812c0.735-0.862 1.205-1.66 1.408-2.395 0.198-0.74 0.157-1.437-0.123-2.093-0.281-0.655-0.777-1.286-1.488-1.893v0c-0.701-0.599-1.461-0.992-2.279-1.179-0.818-0.188-1.655-0.201-2.512-0.04-0.856 0.161-1.681 0.479-2.475 0.952-0.785 0.473-1.493 1.08-2.126 1.822z" fill="#f5ba41" data-fill-palette-color="primary"></path><path d="M88.337 261.917l12.656-23.298 3.281 1.782-14.66 26.987-3.003-1.631zM78.606 249.369l0.198-0.365c1.05-1.933 2.286-3.457 3.709-4.573 1.417-1.119 2.907-1.778 4.47-1.979 1.56-0.195 3.095 0.118 4.605 0.939v0c1.597 0.868 2.73 1.955 3.399 3.263 0.666 1.313 0.933 2.808 0.802 4.483-0.127 1.669-0.608 3.485-1.44 5.445v0l-0.924 1.702c-1.179 1.743-2.431 3.124-3.757 4.142-1.325 1.019-2.721 1.602-4.188 1.75-1.467 0.148-3.01-0.219-4.63-1.099v0c-1.487-0.808-2.566-1.933-3.236-3.377-0.667-1.449-0.918-3.069-0.755-4.861 0.158-1.795 0.74-3.619 1.747-5.47zM82.094 250.791l-0.199 0.365c-0.688 1.267-1.145 2.515-1.369 3.741-0.219 1.23-0.127 2.359 0.274 3.387 0.392 1.03 1.173 1.862 2.342 2.497v0c1.082 0.588 2.095 0.842 3.037 0.762 0.943-0.08 1.83-0.381 2.661-0.904 0.828-0.517 1.599-1.151 2.315-1.902v0l2.32-4.271c0.204-0.721 0.34-1.453 0.406-2.196 0.061-0.746 0.012-1.47-0.147-2.171-0.153-0.698-0.456-1.353-0.91-1.967-0.448-0.61-1.08-1.137-1.896-1.58v0c-1.186-0.644-2.323-0.85-3.409-0.616-1.089 0.225-2.095 0.773-3.018 1.644-0.917 0.874-1.719 1.944-2.408 3.211z" fill="#f5ba41" data-fill-palette-color="primary"></path><path d="M106.215 270.644l11.289-16.875 3.806 1.131-15.425 21.468c-0.341 0.455-0.758 0.932-1.25 1.432-0.486 0.502-1.048 0.949-1.687 1.344-0.639 0.394-1.353 0.659-2.143 0.796-0.794 0.128-1.664 0.052-2.611-0.23v0c-0.189-0.056-0.411-0.143-0.665-0.259-0.26-0.119-0.504-0.235-0.731-0.351-0.233-0.117-0.407-0.214-0.522-0.289v0l0.85-2.86c0.097 0.043 0.255 0.113 0.472 0.213 0.213 0.091 0.364 0.149 0.453 0.175v0c1.199 0.356 2.214 0.386 3.044 0.091 0.824-0.298 1.637-1.025 2.441-2.181v0zM107.551 250.812l0.563 17.707-0.193 4.013-2.946 0.516-1.325-23.395z" fill="#f5ba41" data-fill-palette-color="primary"></path><path d="M130.72 248.513l-3.258 28.928-3.858-0.434 3.258-28.929zM141.346 262.911l-0.35 3.102-12.928-1.456 0.35-3.102zM144.777 250.096l-0.351 3.122-14.892-1.678 0.352-3.121z" fill="#f5ba41" data-fill-palette-color="primary"></path><path d="M162.176 273.746l-0.955-11.102c-0.111-1.286-0.579-2.277-1.406-2.973-0.827-0.702-1.985-0.989-3.475-0.861v0c-0.919 0.079-1.712 0.309-2.38 0.691-0.668 0.375-1.174 0.838-1.516 1.39-0.336 0.551-0.478 1.132-0.425 1.742v0l-3.73 0.32c-0.089-1.03 0.176-2.064 0.794-3.102 0.625-1.039 1.549-1.928 2.774-2.668 1.225-0.74 2.707-1.185 4.446-1.334v0c1.568-0.135 2.979 0.011 4.232 0.439 1.253 0.428 2.27 1.147 3.051 2.157 0.774 1.011 1.23 2.317 1.368 3.918v0l0.864 10.038c0.062 0.722 0.19 1.481 0.384 2.278 0.195 0.803 0.445 1.485 0.751 2.047v0l0.027 0.315-3.887 0.334c-0.22-0.411-0.414-0.966-0.58-1.665-0.173-0.699-0.285-1.354-0.337-1.964zM162.008 264.301l0.262 2.586-3.701 0.318c-2.1 0.181-3.692 0.655-4.775 1.422-1.085 0.761-1.57 1.804-1.456 3.13v0c0.089 1.037 0.512 1.883 1.269 2.538 0.764 0.661 1.815 0.934 3.154 0.819v0c1.129-0.097 2.102-0.422 2.92-0.975 0.825-0.553 1.46-1.203 1.905-1.949 0.444-0.752 0.658-1.455 0.641-2.107v0l1.747 1.634c-0.044 0.566-0.243 1.207-0.598 1.926-0.355 0.711-0.848 1.405-1.476 2.08-0.629 0.675-1.396 1.257-2.299 1.744-0.904 0.481-1.94 0.772-3.108 0.872v0c-1.457 0.125-2.757-0.047-3.901-0.517-1.144-0.47-2.06-1.161-2.747-2.074-0.687-0.919-1.082-1.969-1.183-3.15v0c-0.2-2.323 0.525-4.16 2.173-5.511 1.648-1.358 3.952-2.164 6.911-2.419v0z" fill="#f5ba41" data-fill-palette-color="primary"></path><path d="M187.15 265.661v0c-0.15-0.512-0.4-0.957-0.751-1.334-0.355-0.369-0.925-0.638-1.708-0.807-0.784-0.169-1.902-0.191-3.355-0.068v0c-1.624 0.126-3.07 0.107-4.34-0.057-1.263-0.165-2.31-0.542-3.14-1.128-0.833-0.593-1.415-1.459-1.749-2.597v0c-0.322-1.1-0.3-2.197 0.065-3.292 0.364-1.102 1.045-2.101 2.046-2.998 0.994-0.895 2.265-1.569 3.813-2.022v0c1.662-0.487 3.169-0.613 4.522-0.377 1.352 0.235 2.485 0.751 3.397 1.547 0.913 0.796 1.543 1.789 1.891 2.977v0l-3.584 1.05c-0.252-0.86-0.862-1.562-1.832-2.109-0.978-0.551-2.162-0.623-3.553-0.216v0c-0.973 0.285-1.719 0.668-2.236 1.15-0.52 0.475-0.85 0.987-0.992 1.535-0.135 0.547-0.127 1.077 0.023 1.589v0c0.15 0.512 0.407 0.92 0.771 1.226 0.37 0.303 0.939 0.5 1.707 0.591 0.77 0.097 1.848 0.1 3.234 0.01v0c1.819-0.114 3.358-0.064 4.615 0.151 1.257 0.215 2.268 0.633 3.033 1.253 0.767 0.626 1.315 1.502 1.644 2.627v0c0.352 1.201 0.332 2.363-0.06 3.487-0.398 1.125-1.121 2.123-2.17 2.992-1.051 0.864-2.389 1.533-4.013 2.009v0c-1.833 0.537-3.477 0.665-4.931 0.384-1.455-0.281-2.662-0.84-3.621-1.678-0.953-0.84-1.597-1.834-1.934-2.984v0l3.593-1.053c0.348 0.955 0.858 1.643 1.531 2.064 0.672 0.421 1.41 0.644 2.213 0.669 0.805 0.032 1.575-0.06 2.308-0.274v0c0.973-0.285 1.75-0.657 2.329-1.115 0.581-0.452 0.976-0.955 1.184-1.51 0.202-0.553 0.218-1.117 0.05-1.692z" fill="#f5ba41" data-fill-palette-color="primary"></path><path d="M190.377 237.106l14.087 27.291-3.327 1.717-14.087-27.29zM198.336 254.442l-1.414 0.664c-0.88-1.762-1.351-3.501-1.415-5.218-0.057-1.719 0.289-3.28 1.04-4.683 0.754-1.397 1.906-2.496 3.457-3.296v0c1.27-0.655 2.485-0.986 3.645-0.992 1.16-0.006 2.255 0.37 3.284 1.128 1.029 0.758 1.977 1.977 2.844 3.657v0l6.502 12.597-3.327 1.717-6.52-12.632c-0.52-1.007-1.081-1.743-1.685-2.209-0.61-0.463-1.271-0.689-1.984-0.677-0.713 0.012-1.484 0.233-2.315 0.661v0c-0.819 0.423-1.47 0.978-1.954 1.665-0.483 0.687-0.812 1.457-0.986 2.31-0.175 0.853-0.193 1.737-0.055 2.651 0.141 0.905 0.435 1.791 0.883 2.657z" fill="#f5ba41" data-fill-palette-color="primary"></path><path d="M214.956 232.658l12.729 17.493-3.019 2.197-12.729-17.493zM208.317 230.367v0c-0.345-0.474-0.488-0.984-0.431-1.532 0.054-0.552 0.371-1.04 0.952-1.462v0c0.58-0.422 1.147-0.578 1.7-0.467 0.549 0.105 0.996 0.395 1.341 0.869v0c0.337 0.463 0.471 0.972 0.403 1.527-0.069 0.555-0.393 1.044-0.974 1.466v0c-0.58 0.422-1.14 0.577-1.678 0.464-0.538-0.113-0.976-0.401-1.313-0.865z" fill="#f5ba41" data-fill-palette-color="primary"></path><path d="M227.284 236.454l-0.324-0.319c-1.492-1.469-2.546-3.07-3.159-4.802-0.619-1.728-0.756-3.452-0.411-5.173 0.336-1.721 1.211-3.299 2.625-4.736v0c1.428-1.45 3.006-2.363 4.736-2.74 1.725-0.381 3.453-0.274 5.185 0.323 1.737 0.592 3.352 1.623 4.844 3.092v0l0.324 0.319c1.483 1.46 2.536 3.056 3.159 4.788 0.628 1.727 0.767 3.454 0.418 5.18-0.35 1.716-1.236 3.297-2.66 4.743v0c-1.423 1.445-2.99 2.356-4.7 2.733-1.72 0.377-3.451 0.267-5.193-0.33-1.746-0.592-3.361-1.618-4.844-3.078zM229.587 233.467l0.324 0.319c1.018 1.003 2.116 1.769 3.294 2.301 1.182 0.526 2.353 0.727 3.511 0.601 1.149-0.125 2.207-0.678 3.173-1.659v0c0.952-0.967 1.484-2.028 1.595-3.184 0.107-1.16-0.114-2.325-0.662-3.494-0.545-1.174-1.326-2.262-2.345-3.265v0l-0.324-0.319c-1.018-1.003-2.119-1.767-3.301-2.294-1.178-0.531-2.348-0.732-3.511-0.601-1.168 0.126-2.232 0.676-3.193 1.652v0c-0.947 0.962-1.472 2.026-1.575 3.191-0.112 1.165 0.107 2.332 0.656 3.502 0.554 1.165 1.34 2.248 2.358 3.25z" fill="#f5ba41" data-fill-palette-color="primary"></path><path d="M242.046 209.655l14.247 9.295-2.046 3.135-18.118-11.821 1.937-2.97zM246.05 213.317l-0.903 1.274c-1.635-1.098-2.903-2.378-3.805-3.839-0.899-1.467-1.368-2.996-1.407-4.586-0.034-1.587 0.426-3.111 1.379-4.573v0c0.781-1.197 1.674-2.084 2.681-2.662 1.006-0.578 2.144-0.791 3.413-0.64 1.269 0.152 2.695 0.744 4.278 1.777v0l11.872 7.746-2.046 3.135-11.905-7.767c-0.949-0.619-1.801-0.982-2.556-1.09-0.759-0.102-1.445 0.028-2.059 0.391-0.614 0.362-1.176 0.935-1.688 1.718v0c-0.504 0.772-0.796 1.576-0.877 2.411-0.081 0.836 0.013 1.668 0.282 2.496 0.269 0.828 0.69 1.606 1.262 2.333 0.57 0.718 1.263 1.343 2.079 1.876z" fill="#f5ba41" data-fill-palette-color="primary"></path><path d="M267.139 184.343v0c-0.497-0.195-1.002-0.269-1.515-0.222-0.51 0.055-1.071 0.341-1.683 0.858-0.613 0.517-1.315 1.388-2.106 2.613v0c-0.894 1.361-1.794 2.494-2.699 3.398-0.903 0.898-1.841 1.496-2.814 1.794-0.979 0.296-2.02 0.227-3.124-0.205v0c-1.067-0.418-1.922-1.106-2.565-2.066-0.649-0.962-1.022-2.112-1.119-3.452-0.1-1.334 0.144-2.751 0.732-4.253v0c0.632-1.613 1.454-2.882 2.468-3.808 1.013-0.926 2.114-1.506 3.302-1.741 1.188-0.235 2.359-0.126 3.512 0.326v0l-1.362 3.477c-0.834-0.327-1.764-0.274-2.789 0.159-1.034 0.437-1.815 1.329-2.344 2.678v0c-0.37 0.944-0.523 1.768-0.459 2.473 0.058 0.702 0.26 1.276 0.608 1.723 0.35 0.441 0.774 0.759 1.271 0.954v0c0.497 0.195 0.977 0.241 1.441 0.141 0.466-0.107 0.97-0.437 1.512-0.989 0.548-0.549 1.21-1.4 1.987-2.553v0c1.023-1.509 2.003-2.695 2.943-3.558 0.939-0.863 1.888-1.407 2.846-1.633 0.965-0.223 1.993-0.121 3.084 0.307v0c1.165 0.456 2.072 1.183 2.721 2.18 0.647 1.003 0.993 2.186 1.04 3.547 0.04 1.36-0.248 2.827-0.866 4.404v0c-0.697 1.778-1.601 3.157-2.712 4.136-1.112 0.979-2.293 1.592-3.542 1.837-1.247 0.24-2.428 0.141-3.545-0.295v0l1.366-3.486c0.968 0.309 1.825 0.326 2.568 0.051 0.744-0.274 1.372-0.722 1.884-1.342 0.518-0.618 0.916-1.282 1.194-1.993v0c0.37-0.944 0.551-1.786 0.544-2.524-0.002-0.736-0.158-1.356-0.47-1.861-0.314-0.498-0.75-0.856-1.309-1.075z" fill="#f5ba41" data-fill-palette-color="primary"></path><path d="M16.504 142.758c0-1.847 1.497-3.344 3.344-3.345 1.847 0 3.344 1.497 3.344 3.345 0 1.847-1.497 3.344-3.344 3.344-1.847 0-3.344-1.497-3.344-3.344z" fill="#f5ba41" data-fill-palette-color="primary"></path><path d="M265.445 142.758c0-1.847 1.497-3.344 3.344-3.345 1.847 0 3.344 1.497 3.344 3.345 0 1.847-1.497 3.344-3.344 3.344-1.847 0-3.344-1.497-3.344-3.344z" fill="#f5ba41" data-fill-palette-color="primary"></path></g></svg></g></svg></g></svg></g><g></g></svg></g><defs></defs></svg><rect width="280" height="280" fill="none" stroke="none" visibility="hidden"></rect></g></svg></g></svg>